<?xml version="1.0" encoding="utf-8"?>
<!-- Generator: Adobe Illustrator 23.0.0, SVG Export Plug-In . SVG Version: 6.00 Build 0)  -->
<svg version="1.1" xmlns="http://www.w3.org/2000/svg" xmlns:xlink="http://www.w3.org/1999/xlink" x="0px" y="0px"
	 viewBox="0 0 40 12.9" style="enable-background:new 0 0 40 12.9;" xml:space="preserve">
<style type="text/css">
	.st0{fill:#FFFFFF;}
	.st1{fill:#0029D3;}
	.st2{fill-rule:evenodd;clip-rule:evenodd;fill:none;}
	.st3{fill:#F07D00;}
	.st4{fill:#6E3075;}
</style>
<g id="Layer_1">
	<g>
		<g>
			<g id="XMLID_10_">
				<g>
					<path class="st3" d="M36.15,6.44l1.87,0.61c-0.28,1.08-0.76,1.88-1.44,2.41c-0.66,0.52-1.51,0.78-2.54,0.78
						c-1.27,0-2.32-0.45-3.14-1.35C30.09,8,29.68,6.78,29.68,5.22c0-1.65,0.41-2.92,1.23-3.84c0.83-0.9,1.91-1.36,3.25-1.36
						c1.18,0,2.12,0.36,2.87,1.08c0.44,0.41,0.76,1.02,0.98,1.82l-1.92,0.47c-0.12-0.51-0.35-0.92-0.71-1.22
						c-0.36-0.29-0.8-0.44-1.32-0.44c-0.71,0-1.29,0.26-1.72,0.78c-0.45,0.52-0.66,1.37-0.66,2.55c0,1.25,0.22,2.15,0.65,2.67
						c0.44,0.53,1,0.8,1.7,0.8c0.51,0,0.96-0.16,1.33-0.5C35.73,7.69,35.99,7.16,36.15,6.44z"/>
					<polygon class="st3" points="29.53,0.2 29.53,1.86 26.68,1.86 26.68,10.07 24.76,10.07 24.76,1.86 21.91,1.86 21.91,0.2 					
						"/>
					<polygon class="st3" points="20.57,0.2 20.57,1.86 15.94,1.86 15.94,4.21 20.02,4.22 20.02,5.88 15.94,5.87 15.94,10.07 
						14.01,10.07 14.01,0.2 					"/>
					<path class="st0" d="M13.02,0.16v9.94H4.46c0.9-0.17,2.11-0.94,3-2.1c0.33-0.04,0.65-0.1,0.96-0.17
						C8.46,7.81,8.5,7.8,8.54,7.79c0.56-0.1,1.06-0.26,1.5-0.46c0.07-0.02,0.13-0.05,0.19-0.09c0.05-0.02,0.11-0.04,0.16-0.08
						c0.21-0.09,0.39-0.2,0.56-0.32c0.04-0.02,0.09-0.04,0.13-0.08c0.01,0,0.01-0.01,0.01-0.01c0.11-0.08,0.22-0.16,0.31-0.25
						c0.34-0.32,0.51-0.64,0.51-0.99c-0.07-0.6-0.34-1.11-0.72-1.54C11.1,3.88,11,3.77,10.89,3.68c-0.14-0.12-0.28-0.24-0.44-0.35
						c-0.01-0.01-0.02-0.01-0.02-0.02c-0.13-0.08-0.26-0.16-0.38-0.24C10.03,3.06,10,3.04,9.98,3.03c-0.02,0-0.03-0.01-0.04-0.02
						C9.64,2.83,9.35,2.7,9.09,2.59C8.95,2.53,8.82,2.47,8.7,2.44C8.53,2.38,8.39,2.33,8.28,2.3c-0.02,0-0.03-0.01-0.04-0.01
						C8.17,2.26,8.12,2.24,8.08,2.23c-0.03,0-0.05-0.01-0.07-0.01H8V2.21C7.94,2.1,7.88,2,7.81,1.9C7.64,1.59,7.43,1.26,7.17,0.95
						c-0.12-0.16-0.26-0.33-0.4-0.48C6.68,0.36,6.58,0.26,6.48,0.16H13.02z"/>
					<path class="st0" d="M11.15,5.25c0,0.8-1.32,1.49-3.11,1.83c0.62-1.2,0.85-2.67,0.22-4.28C9.18,3.09,10.97,3.84,11.15,5.25z"/>
					<path class="st3" d="M6.94,2.54c0.51,0.73,0.82,1.7,0.78,2.99C7.71,6.16,7.59,6.71,7.37,7.18C5.66,7.41,3.65,7.29,1.97,6.65
						V0.16c1.1,0.13,3.21,0.45,4.55,1.85c0,0,0,0,0.01,0.01C6.68,2.18,6.82,2.35,6.94,2.54z"/>
					<path class="st3" d="M1.97,7.51c1.54,0.54,3.27,0.7,4.85,0.57c-1.61,1.99-4.85,2.03-4.85,2.03V7.51z"/>
				</g>
				<g>
					<path class="st0" d="M38.14,11.13l-0.69,0.99v0.72h-0.22v-0.72l-0.66-0.99h0.27l0.34,0.52c0.07,0.09,0.12,0.19,0.17,0.28
						c0.05-0.09,0.12-0.19,0.19-0.31l0.34-0.5H38.14z"/>
					<path class="st0" d="M36.05,11.13l0.7,1.71h-0.26l-0.2-0.51h-0.71l-0.19,0.51h-0.25l0.66-1.71H36.05z M36.22,12.15l-0.19-0.48
						c-0.05-0.14-0.09-0.26-0.12-0.35c-0.02,0.11-0.04,0.22-0.09,0.33l-0.19,0.5H36.22z"/>
					<path class="st0" d="M35.21,11.13l-0.46,1.71h-0.22l-0.37-1.3c-0.02-0.11-0.04-0.17-0.04-0.21c-0.02,0.08-0.04,0.15-0.05,0.21
						l-0.36,1.3h-0.23l-0.46-1.71h0.23l0.26,1.12c0.03,0.12,0.05,0.24,0.08,0.35c0.04-0.19,0.07-0.28,0.08-0.32l0.33-1.15h0.27
						l0.24,0.87c0.07,0.21,0.11,0.41,0.13,0.6c0.02-0.11,0.05-0.23,0.09-0.37l0.27-1.1H35.21z"/>
					<polygon class="st0" points="32.87,12.65 32.87,12.85 31.59,12.85 31.59,11.13 32.82,11.13 32.82,11.34 31.81,11.34 
						31.81,11.86 32.76,11.86 32.76,12.06 31.81,12.06 31.81,12.65 					"/>
					<polygon class="st0" points="31.35,11.13 31.35,11.34 30.79,11.34 30.79,12.85 30.56,12.85 30.56,11.34 30,11.34 30,11.13 
											"/>
					<path class="st0" d="M29.42,11.13l0.7,1.71h-0.25l-0.21-0.51h-0.71l-0.19,0.51h-0.24l0.65-1.71H29.42z M29.6,12.15l-0.17-0.48
						c-0.05-0.14-0.1-0.26-0.13-0.35c-0.02,0.11-0.04,0.22-0.09,0.33l-0.19,0.5H29.6z"/>
					<path class="st0" d="M28.38,11.97v0.63c-0.11,0.09-0.22,0.15-0.34,0.21c-0.12,0.04-0.24,0.07-0.37,0.07
						c-0.16,0-0.32-0.04-0.46-0.11c-0.13-0.08-0.24-0.17-0.31-0.32c-0.07-0.13-0.11-0.28-0.11-0.46c0-0.16,0.04-0.32,0.11-0.46
						c0.07-0.14,0.16-0.25,0.29-0.33c0.13-0.07,0.28-0.1,0.46-0.1c0.12,0,0.23,0.02,0.33,0.05c0.11,0.04,0.19,0.1,0.24,0.17
						c0.05,0.07,0.1,0.16,0.13,0.27l-0.21,0.05c-0.02-0.09-0.05-0.15-0.1-0.2c-0.03-0.05-0.09-0.1-0.16-0.12
						c-0.07-0.03-0.14-0.05-0.23-0.05c-0.11,0-0.2,0.02-0.27,0.05c-0.08,0.03-0.13,0.07-0.17,0.12c-0.05,0.05-0.09,0.11-0.11,0.17
						c-0.04,0.1-0.07,0.22-0.07,0.34c0,0.15,0.02,0.28,0.08,0.38c0.05,0.11,0.13,0.19,0.23,0.23c0.1,0.05,0.21,0.08,0.32,0.08
						c0.1,0,0.2-0.02,0.28-0.05c0.1-0.04,0.16-0.08,0.22-0.12v-0.32h-0.5v-0.21H28.38z"/>
					<path class="st0" d="M26.04,11.13l-0.68,0.99v0.72h-0.23v-0.72l-0.66-0.99h0.28l0.34,0.52c0.05,0.09,0.12,0.19,0.16,0.28
						c0.05-0.09,0.12-0.19,0.2-0.31l0.33-0.5H26.04z"/>
					<path class="st0" d="M24.31,11.97v0.63c-0.11,0.09-0.23,0.15-0.34,0.21c-0.12,0.04-0.24,0.07-0.37,0.07
						c-0.16,0-0.32-0.04-0.46-0.11c-0.13-0.08-0.24-0.17-0.31-0.32c-0.08-0.13-0.11-0.28-0.11-0.46c0-0.16,0.03-0.32,0.11-0.46
						c0.07-0.14,0.16-0.25,0.29-0.33c0.13-0.07,0.28-0.1,0.46-0.1c0.12,0,0.23,0.02,0.33,0.05c0.11,0.04,0.19,0.1,0.24,0.17
						c0.05,0.07,0.1,0.16,0.13,0.27l-0.21,0.05c-0.02-0.09-0.05-0.15-0.1-0.2c-0.03-0.05-0.09-0.1-0.16-0.12
						c-0.07-0.03-0.14-0.05-0.23-0.05c-0.11,0-0.2,0.02-0.27,0.05c-0.08,0.03-0.13,0.07-0.19,0.12c-0.04,0.05-0.08,0.11-0.1,0.17
						c-0.04,0.1-0.07,0.22-0.07,0.34c0,0.15,0.02,0.28,0.08,0.38c0.05,0.11,0.13,0.19,0.23,0.23c0.1,0.05,0.21,0.08,0.32,0.08
						c0.1,0,0.2-0.02,0.28-0.05c0.1-0.04,0.16-0.08,0.22-0.12v-0.32h-0.5v-0.21H24.31z"/>
					<path class="st0" d="M22.41,11.54c0.07,0.13,0.1,0.28,0.1,0.46s-0.03,0.33-0.11,0.47c-0.07,0.13-0.16,0.24-0.29,0.31
						c-0.13,0.08-0.27,0.11-0.41,0.11c-0.16,0-0.31-0.04-0.44-0.12c-0.12-0.08-0.22-0.19-0.28-0.32c-0.07-0.13-0.1-0.27-0.1-0.42
						c0-0.28,0.08-0.51,0.23-0.66c0.15-0.16,0.35-0.24,0.59-0.24c0.15,0,0.29,0.03,0.42,0.11S22.33,11.41,22.41,11.54z M22.27,12
						c0-0.14-0.02-0.26-0.07-0.37c-0.04-0.1-0.12-0.17-0.21-0.24c-0.09-0.05-0.2-0.09-0.31-0.09c-0.16,0-0.29,0.05-0.41,0.17
						c-0.11,0.11-0.17,0.28-0.17,0.54c0,0.21,0.05,0.37,0.16,0.49c0.12,0.12,0.25,0.17,0.42,0.17c0.16,0,0.31-0.05,0.41-0.17
						C22.21,12.39,22.27,12.21,22.27,12z"/>
					<polygon class="st0" points="20.66,12.65 20.66,12.85 19.61,12.85 19.61,11.13 19.83,11.13 19.83,12.65 					"/>
					<path class="st0" d="M19.23,11.54c0.07,0.13,0.1,0.28,0.1,0.46s-0.03,0.33-0.11,0.47c-0.07,0.13-0.16,0.24-0.29,0.31
						c-0.13,0.08-0.27,0.11-0.41,0.11c-0.16,0-0.31-0.04-0.44-0.12c-0.12-0.08-0.22-0.19-0.28-0.32c-0.07-0.13-0.1-0.27-0.1-0.42
						c0-0.28,0.08-0.51,0.23-0.66c0.15-0.16,0.35-0.24,0.59-0.24c0.15,0,0.29,0.03,0.42,0.11S19.16,11.41,19.23,11.54z M19.08,12
						c0-0.14-0.02-0.26-0.07-0.37c-0.04-0.1-0.12-0.17-0.21-0.24c-0.09-0.05-0.2-0.09-0.31-0.09c-0.16,0-0.29,0.05-0.41,0.17
						c-0.11,0.11-0.17,0.28-0.17,0.54c0,0.21,0.05,0.37,0.17,0.49c0.11,0.12,0.24,0.17,0.41,0.17c0.16,0,0.31-0.05,0.41-0.17
						C19.03,12.39,19.08,12.21,19.08,12z"/>
					<polygon class="st0" points="17.37,11.13 17.37,12.85 17.15,12.85 16.25,11.51 16.25,12.85 16.03,12.85 16.03,11.13 
						16.26,11.13 17.16,12.47 17.16,11.13 					"/>
					<polygon class="st0" points="15.66,11.13 15.66,12.85 15.44,12.85 15.44,12.04 14.54,12.04 14.54,12.85 14.32,12.85 
						14.32,11.13 14.54,11.13 14.54,11.84 15.44,11.84 15.44,11.13 					"/>
					<path class="st0" d="M13.81,12.25l0.23,0.05c-0.05,0.19-0.14,0.33-0.26,0.42c-0.12,0.1-0.27,0.15-0.45,0.15
						c-0.19,0-0.34-0.04-0.46-0.12c-0.11-0.07-0.2-0.17-0.26-0.32c-0.05-0.15-0.09-0.31-0.09-0.46c0-0.19,0.03-0.34,0.1-0.47
						c0.08-0.13,0.16-0.24,0.29-0.31c0.12-0.07,0.26-0.1,0.41-0.1c0.17,0,0.32,0.04,0.44,0.13c0.11,0.09,0.2,0.21,0.24,0.36
						l-0.23,0.05c-0.03-0.12-0.09-0.22-0.16-0.27c-0.08-0.05-0.17-0.09-0.28-0.09c-0.13,0-0.25,0.03-0.34,0.1s-0.14,0.15-0.19,0.25
						c-0.03,0.11-0.05,0.22-0.05,0.33c0,0.15,0.02,0.27,0.07,0.38c0.04,0.11,0.11,0.2,0.2,0.25c0.1,0.05,0.19,0.08,0.29,0.08
						c0.13,0,0.23-0.03,0.32-0.11C13.72,12.5,13.78,12.39,13.81,12.25z"/>
					<polygon class="st0" points="12.28,12.65 12.28,12.85 11,12.85 11,11.13 12.24,11.13 12.24,11.34 11.23,11.34 11.23,11.86 
						12.18,11.86 12.18,12.06 11.23,12.06 11.23,12.65 					"/>
					<polygon class="st0" points="10.77,11.13 10.77,11.34 10.21,11.34 10.21,12.85 9.98,12.85 9.98,11.34 9.42,11.34 9.42,11.13 
											"/>
					<path class="st0" d="M8.42,12.38l0.29,0.47H8.43L8.2,12.49c-0.07-0.1-0.12-0.17-0.16-0.23c-0.04-0.05-0.08-0.1-0.12-0.12
						c-0.03-0.02-0.07-0.03-0.1-0.04c-0.02,0-0.07-0.01-0.13-0.01H7.43v0.76H7.21v-1.71h0.75c0.15,0,0.27,0.02,0.35,0.05
						c0.08,0.02,0.14,0.08,0.19,0.16c0.05,0.08,0.08,0.15,0.08,0.25c0,0.12-0.04,0.23-0.12,0.31c-0.08,0.09-0.2,0.14-0.36,0.16
						c0.05,0.02,0.1,0.05,0.13,0.09C8.29,12.21,8.35,12.29,8.42,12.38z M8.29,11.76c0.03-0.04,0.05-0.1,0.05-0.15
						c0-0.08-0.03-0.14-0.09-0.2c-0.07-0.05-0.15-0.08-0.28-0.08H7.43v0.57h0.49c0.1,0,0.19-0.01,0.24-0.03
						C8.22,11.84,8.27,11.81,8.29,11.76z"/>
					<path class="st0" d="M6.83,11.13v0.99c0,0.17-0.02,0.31-0.05,0.4c-0.04,0.11-0.11,0.19-0.22,0.25c-0.1,0.07-0.23,0.1-0.39,0.1
						c-0.16,0-0.29-0.03-0.39-0.09c-0.11-0.05-0.17-0.13-0.22-0.24c-0.04-0.1-0.07-0.25-0.07-0.42v-0.99h0.22v0.99
						c0,0.14,0.02,0.25,0.04,0.33c0.03,0.07,0.08,0.12,0.14,0.16c0.07,0.03,0.15,0.05,0.25,0.05c0.16,0,0.28-0.03,0.35-0.11
						c0.08-0.08,0.11-0.23,0.11-0.44v-0.99H6.83z"/>
					<path class="st0" d="M5.08,11.54c0.08,0.13,0.11,0.28,0.11,0.46s-0.04,0.33-0.11,0.47c-0.07,0.13-0.17,0.24-0.29,0.31
						c-0.13,0.08-0.27,0.11-0.41,0.11c-0.16,0-0.31-0.04-0.44-0.12c-0.12-0.08-0.22-0.19-0.28-0.32c-0.07-0.13-0.1-0.27-0.1-0.42
						c0-0.28,0.08-0.51,0.23-0.66c0.15-0.16,0.35-0.24,0.59-0.24c0.15,0,0.29,0.03,0.42,0.11C4.92,11.3,5.02,11.41,5.08,11.54z
						 M4.95,12c0-0.14-0.02-0.26-0.07-0.37c-0.05-0.1-0.12-0.17-0.21-0.24c-0.09-0.05-0.2-0.09-0.31-0.09
						c-0.16,0-0.29,0.05-0.41,0.17c-0.12,0.11-0.17,0.28-0.17,0.54c0,0.21,0.05,0.37,0.16,0.49c0.12,0.12,0.25,0.17,0.42,0.17
						c0.16,0,0.31-0.05,0.41-0.17C4.9,12.39,4.95,12.21,4.95,12z"/>
					<path class="st0" d="M3.42,11.13l-0.68,0.99v0.72H2.51v-0.72l-0.65-0.99h0.27l0.34,0.52c0.07,0.09,0.12,0.19,0.17,0.28
						c0.05-0.09,0.11-0.19,0.19-0.31l0.33-0.5H3.42z"/>
				</g>
			</g>
		</g>
	</g>
</g>
<g id="Layer_2">
</g>
</svg>
