<?xml version="1.0" encoding="utf-8"?>
<!-- Generator: Adobe Illustrator 23.0.0, SVG Export Plug-In . SVG Version: 6.00 Build 0)  -->
<svg version="1.1" xmlns="http://www.w3.org/2000/svg" xmlns:xlink="http://www.w3.org/1999/xlink" x="0px" y="0px"
	 viewBox="0 0 35 12.98" style="enable-background:new 0 0 35 12.98;" xml:space="preserve">
<style type="text/css">
	.full-logo-st4{
		fill: #656565;
	}
</style>
<g id="Layer_1">
</g>
<g id="Layer_2">
	<g>
		<g>
			<g>
				<g>
					<circle class="full-logo-st4" cx="5.14" cy="2.94" r="0.25"/>
				</g>
				<g>
					<circle class="full-logo-st4" cx="5.14" cy="2.94" r="0.25"/>
				</g>
				<g>
					<path class="full-logo-st4" d="M2.56,5.98c-0.2,0.41-0.7,0.58-1.1,0.38c-0.41-0.2-0.58-0.7-0.38-1.1c0.2-0.41,0.7-0.58,1.1-0.38
						C2.59,5.08,2.76,5.57,2.56,5.98z"/>
					<path class="full-logo-st4" d="M3.38,4.58C3.13,4.82,2.73,4.8,2.49,4.54c-0.24-0.26-0.22-0.66,0.04-0.9c0.26-0.24,0.66-0.22,0.9,0.04
						C3.66,3.94,3.64,4.34,3.38,4.58z"/>
					<path class="full-logo-st4" d="M4.42,3.63c-0.22,0.11-0.49,0.02-0.6-0.2c-0.11-0.22-0.02-0.49,0.2-0.6c0.22-0.11,0.49-0.02,0.6,0.2
						C4.73,3.25,4.64,3.52,4.42,3.63z"/>
					<circle class="full-logo-st4" cx="5.14" cy="2.94" r="0.25"/>
				</g>
				<g>
					<circle class="full-logo-st4" cx="1.34" cy="7.76" r="1.02"/>
					<circle class="full-logo-st4" cx="1.81" cy="9.91" r="0.83"/>
					<circle class="full-logo-st4" cx="2.91" cy="11.44" r="0.63"/>
					<circle class="full-logo-st4" cx="4.16" cy="12.34" r="0.44"/>
					<circle class="full-logo-st4" cx="5.06" cy="12.65" r="0.25"/>
				</g>
			</g>
			<g>
				<g>
					<circle class="full-logo-st4" cx="9.97" cy="5.22" r="0.25"/>
				</g>
				<g>
					<circle class="full-logo-st4" cx="5.14" cy="1.41" r="1.02"/>
					<path class="full-logo-st4" d="M9.22,3.5c-0.26,0.24-0.66,0.22-0.9-0.04C8.09,3.21,8.1,2.81,8.36,2.57c0.26-0.24,0.66-0.22,0.9,0.04
						C9.5,2.86,9.48,3.26,9.22,3.5z"/>
					<path class="full-logo-st4" d="M9.88,4.71c-0.22,0.11-0.49,0.02-0.6-0.2c-0.11-0.22-0.02-0.49,0.2-0.6c0.22-0.11,0.49-0.02,0.6,0.2
						C10.19,4.33,10.09,4.6,9.88,4.71z"/>
					<circle class="full-logo-st4" cx="9.97" cy="5.22" r="0.25"/>
				</g>
				<g>
					<path class="full-logo-st4" d="M8.03,2.27c-0.2,0.41-0.7,0.58-1.1,0.38c-0.41-0.2-0.58-0.7-0.38-1.1c0.2-0.41,0.7-0.58,1.1-0.38
						C8.06,1.36,8.23,1.86,8.03,2.27z"/>
					<circle class="full-logo-st4" cx="9.97" cy="5.22" r="0.25"/>
				</g>
				<g>
					<circle class="full-logo-st4" cx="2.99" cy="1.89" r="0.83"/>
					<circle class="full-logo-st4" cx="1.47" cy="2.99" r="0.63"/>
					<circle class="full-logo-st4" cx="0.56" cy="4.24" r="0.44"/>
					<circle class="full-logo-st4" cx="0.25" cy="5.14" r="0.25"/>
				</g>
			</g>
			<g>
				<g>
					<circle class="full-logo-st4" cx="7.68" cy="10.05" r="0.25"/>
				</g>
				<g>
					<circle class="full-logo-st4" cx="7.68" cy="10.05" r="0.25"/>
				</g>
				<g>
					<path class="full-logo-st4" d="M11.74,7.73c-0.2,0.41-0.7,0.58-1.1,0.38c-0.41-0.2-0.58-0.7-0.38-1.1c0.2-0.41,0.7-0.58,1.1-0.38
						C11.77,6.83,11.94,7.32,11.74,7.73z"/>
					<path class="full-logo-st4" d="M10.3,9.34c-0.26,0.24-0.66,0.22-0.9-0.04c-0.24-0.26-0.22-0.66,0.04-0.9c0.26-0.24,0.66-0.22,0.9,0.04
						C10.58,8.7,10.56,9.1,10.3,9.34z"/>
					<path class="full-logo-st4" d="M8.8,10.16c-0.22,0.11-0.49,0.02-0.6-0.2c-0.11-0.22-0.02-0.49,0.2-0.6C8.62,9.25,8.89,9.34,9,9.56
						C9.11,9.78,9.01,10.05,8.8,10.16z"/>
					<circle class="full-logo-st4" cx="7.68" cy="10.05" r="0.25"/>
				</g>
				<g>
					<circle class="full-logo-st4" cx="11.49" cy="5.22" r="1.02"/>
					<circle class="full-logo-st4" cx="11.02" cy="3.07" r="0.83"/>
					<circle class="full-logo-st4" cx="9.91" cy="1.55" r="0.63"/>
					<circle class="full-logo-st4" cx="8.67" cy="0.64" r="0.44"/>
					<circle class="full-logo-st4" cx="7.77" cy="0.33" r="0.25"/>
				</g>
			</g>
			<g>
				<g>
					<circle class="full-logo-st4" cx="2.86" cy="7.76" r="0.25"/>
				</g>
				<g>
					<circle class="full-logo-st4" cx="2.86" cy="7.76" r="0.25"/>
				</g>
				<g>
					<path class="full-logo-st4" d="M6.28,11.45c-0.2,0.41-0.7,0.58-1.1,0.38c-0.41-0.2-0.58-0.7-0.38-1.1c0.2-0.41,0.7-0.58,1.1-0.38
						C6.31,10.54,6.48,11.04,6.28,11.45z"/>
					<path class="full-logo-st4" d="M4.46,10.42c-0.26,0.24-0.66,0.22-0.9-0.04c-0.24-0.26-0.22-0.66,0.04-0.9c0.26-0.24,0.66-0.22,0.9,0.04
						C4.74,9.78,4.72,10.18,4.46,10.42z"/>
					<path class="full-logo-st4" d="M3.35,9.08c-0.22,0.11-0.49,0.02-0.6-0.2c-0.11-0.22-0.02-0.49,0.2-0.6c0.22-0.11,0.49-0.02,0.6,0.2
						C3.66,8.7,3.56,8.97,3.35,9.08z"/>
					<circle class="full-logo-st4" cx="2.86" cy="7.76" r="0.25"/>
				</g>
				<g>
					<circle class="full-logo-st4" cx="7.68" cy="11.57" r="1.02"/>
					<circle class="full-logo-st4" cx="9.83" cy="11.09" r="0.83"/>
					<circle class="full-logo-st4" cx="11.36" cy="9.99" r="0.63"/>
					<circle class="full-logo-st4" cx="12.26" cy="8.75" r="0.44"/>
					<circle class="full-logo-st4" cx="12.57" cy="7.85" r="0.25"/>
				</g>
			</g>
		</g>
		<g>
			<g>
				<path class="full-logo-st4" d="M16.3,7.47V2.94h1.25v4.53H16.3z"/>
				<path class="full-logo-st4" d="M20.37,7.51c-0.34,0-0.66-0.07-0.94-0.2c-0.28-0.13-0.52-0.31-0.72-0.52c-0.2-0.21-0.36-0.46-0.47-0.74
					c-0.11-0.28-0.17-0.56-0.17-0.86c0-0.3,0.06-0.59,0.17-0.86c0.12-0.28,0.28-0.52,0.48-0.73c0.21-0.21,0.45-0.38,0.73-0.5
					c0.28-0.13,0.59-0.19,0.93-0.19c0.34,0,0.66,0.07,0.94,0.2c0.28,0.13,0.52,0.31,0.72,0.52c0.2,0.22,0.35,0.46,0.46,0.74
					c0.11,0.28,0.16,0.56,0.16,0.85c0,0.3-0.06,0.58-0.17,0.86c-0.12,0.27-0.27,0.52-0.48,0.73c-0.2,0.21-0.45,0.38-0.73,0.51
					C21.02,7.45,20.71,7.51,20.37,7.51z M19.34,5.21c0,0.15,0.02,0.3,0.06,0.44c0.04,0.14,0.11,0.27,0.19,0.38
					c0.09,0.11,0.19,0.2,0.32,0.27c0.13,0.07,0.28,0.1,0.46,0.1s0.33-0.04,0.47-0.11c0.13-0.07,0.24-0.16,0.32-0.27
					c0.08-0.11,0.14-0.24,0.19-0.39c0.04-0.14,0.06-0.29,0.06-0.44c0-0.15-0.02-0.3-0.06-0.44c-0.04-0.14-0.11-0.27-0.19-0.38
					c-0.09-0.11-0.2-0.2-0.33-0.26c-0.13-0.07-0.28-0.1-0.46-0.1c-0.18,0-0.33,0.03-0.46,0.1c-0.13,0.07-0.24,0.16-0.32,0.27
					C19.5,4.5,19.44,4.63,19.4,4.77C19.36,4.92,19.34,5.06,19.34,5.21z"/>
				<path class="full-logo-st4" d="M26.67,4.02h-1.3v3.45h-1.25V4.02h-1.31V2.94h3.86V4.02z"/>
				<path class="full-logo-st4" d="M30.36,6.39v1.09h-3.23V2.94h3.17v1.09h-1.93v0.64h1.65v1.01h-1.65v0.72H30.36z"/>
				<path class="full-logo-st4" d="M30.62,5.17c0-0.28,0.05-0.55,0.16-0.82s0.26-0.51,0.46-0.72c0.2-0.21,0.44-0.39,0.73-0.52
					c0.29-0.13,0.61-0.2,0.98-0.2c0.44,0,0.82,0.09,1.14,0.27C34.4,3.36,34.64,3.6,34.8,3.9l-0.95,0.68
					c-0.04-0.11-0.1-0.2-0.17-0.27c-0.07-0.07-0.15-0.13-0.23-0.17c-0.09-0.04-0.17-0.07-0.27-0.09C33.09,4.02,33,4.02,32.91,4.02
					c-0.18,0-0.33,0.04-0.46,0.11c-0.13,0.07-0.24,0.16-0.32,0.27c-0.08,0.11-0.14,0.24-0.19,0.38c-0.04,0.14-0.06,0.28-0.06,0.42
					c0,0.16,0.02,0.31,0.07,0.45c0.05,0.14,0.11,0.27,0.2,0.38c0.09,0.11,0.2,0.2,0.33,0.27c0.13,0.07,0.28,0.1,0.44,0.1
					c0.09,0,0.17-0.01,0.26-0.03s0.18-0.05,0.26-0.1c0.08-0.04,0.16-0.1,0.22-0.17c0.07-0.07,0.12-0.16,0.16-0.26l1.02,0.61
					c-0.07,0.17-0.17,0.32-0.31,0.45s-0.3,0.24-0.47,0.33c-0.18,0.09-0.37,0.16-0.57,0.2c-0.2,0.05-0.4,0.07-0.59,0.07
					c-0.34,0-0.64-0.07-0.92-0.2C31.7,7.17,31.46,7,31.25,6.77c-0.2-0.22-0.36-0.47-0.47-0.75S30.62,5.45,30.62,5.17z"/>
			</g>
			<g>
				<path class="full-logo-st4" d="M18.26,10.06h-0.34V8.61h0.34V10.06z"/>
				<path class="full-logo-st4" d="M19.58,8.61v0.27h-0.41v1.18h-0.34V8.88h-0.41V8.61H19.58z"/>
				<path class="full-logo-st4" d="M20.88,9.47c0.01,0.03,0.02,0.06,0.04,0.08c0.01-0.03,0.02-0.06,0.04-0.08c0.01-0.03,0.03-0.05,0.04-0.08
					l0.37-0.73c0.01-0.01,0.01-0.02,0.02-0.03c0.01-0.01,0.01-0.01,0.02-0.02c0.01,0,0.02-0.01,0.03-0.01c0.01,0,0.02,0,0.04,0h0.26
					v1.45h-0.3V9.23c0-0.04,0-0.08,0.01-0.13l-0.38,0.74c-0.01,0.02-0.03,0.04-0.05,0.05c-0.02,0.01-0.04,0.02-0.07,0.02h-0.05
					c-0.03,0-0.05-0.01-0.07-0.02c-0.02-0.01-0.04-0.03-0.05-0.05l-0.39-0.74c0,0.02,0,0.05,0.01,0.07c0,0.02,0,0.04,0,0.06v0.83
					h-0.3V8.61h0.26c0.01,0,0.03,0,0.04,0c0.01,0,0.02,0,0.03,0.01c0.01,0,0.02,0.01,0.02,0.02c0.01,0.01,0.01,0.02,0.02,0.03
					l0.37,0.73C20.86,9.42,20.87,9.45,20.88,9.47z"/>
				<path class="full-logo-st4" d="M23.32,10.06h-0.26c-0.03,0-0.05-0.01-0.07-0.02c-0.02-0.01-0.03-0.03-0.04-0.05l-0.09-0.25h-0.55
					l-0.09,0.25c-0.01,0.02-0.02,0.04-0.04,0.05c-0.02,0.01-0.04,0.02-0.07,0.02h-0.26l0.56-1.45h0.34L23.32,10.06z M22.39,9.5h0.4
					l-0.13-0.4c-0.01-0.03-0.02-0.05-0.03-0.09c-0.01-0.03-0.02-0.07-0.03-0.11c-0.01,0.04-0.02,0.08-0.03,0.11
					c-0.01,0.03-0.02,0.06-0.03,0.09L22.39,9.5z"/>
				<path class="full-logo-st4" d="M24.75,9.33c0,0.1-0.02,0.2-0.05,0.29c-0.04,0.09-0.09,0.16-0.15,0.23C24.47,9.92,24.39,9.97,24.3,10
					c-0.09,0.04-0.19,0.05-0.31,0.05h-0.56V8.61h0.56c0.11,0,0.21,0.02,0.31,0.05c0.09,0.04,0.17,0.09,0.24,0.15
					c0.07,0.06,0.12,0.14,0.15,0.23C24.73,9.13,24.75,9.23,24.75,9.33z M24.4,9.33c0-0.07-0.01-0.14-0.03-0.19
					c-0.02-0.06-0.05-0.11-0.08-0.15c-0.03-0.04-0.08-0.07-0.13-0.09c-0.05-0.02-0.11-0.03-0.17-0.03h-0.22V9.8h0.22
					c0.06,0,0.12-0.01,0.17-0.03c0.05-0.02,0.09-0.05,0.13-0.09c0.03-0.04,0.06-0.09,0.08-0.15C24.39,9.47,24.4,9.41,24.4,9.33z"/>
				<path class="full-logo-st4" d="M25.84,8.61v0.26h-0.59v0.34h0.45v0.25h-0.45V9.8h0.59v0.26h-0.93V8.61H25.84z"/>
				<path class="full-logo-st4" d="M27.22,8.9c-0.01,0.02-0.02,0.03-0.03,0.04c-0.01,0.01-0.03,0.01-0.04,0.01c-0.02,0-0.03,0-0.05-0.01
					c-0.02-0.01-0.04-0.02-0.06-0.03c-0.02-0.01-0.05-0.02-0.08-0.03c-0.03-0.01-0.06-0.01-0.1-0.01c-0.06,0-0.11,0.01-0.14,0.04
					c-0.03,0.03-0.05,0.06-0.05,0.11c0,0.03,0.01,0.05,0.03,0.07c0.02,0.02,0.04,0.04,0.07,0.05c0.03,0.01,0.06,0.03,0.1,0.04
					c0.04,0.01,0.08,0.02,0.12,0.04c0.04,0.01,0.08,0.03,0.12,0.05c0.04,0.02,0.07,0.04,0.1,0.07c0.03,0.03,0.05,0.07,0.07,0.11
					c0.02,0.04,0.03,0.09,0.03,0.15c0,0.07-0.01,0.13-0.03,0.19s-0.06,0.11-0.1,0.15c-0.04,0.04-0.1,0.08-0.16,0.1
					c-0.06,0.02-0.14,0.04-0.22,0.04c-0.05,0-0.09,0-0.14-0.01c-0.05-0.01-0.09-0.02-0.14-0.04c-0.04-0.02-0.08-0.04-0.12-0.06
					c-0.04-0.02-0.07-0.05-0.1-0.08l0.1-0.16c0.01-0.01,0.02-0.02,0.03-0.03c0.01-0.01,0.03-0.01,0.04-0.01
					c0.02,0,0.04,0.01,0.06,0.02c0.02,0.01,0.04,0.03,0.07,0.04c0.03,0.02,0.05,0.03,0.09,0.04c0.03,0.01,0.07,0.02,0.12,0.02
					c0.06,0,0.11-0.01,0.14-0.04C26.99,9.74,27,9.7,27,9.64c0-0.03-0.01-0.06-0.03-0.08c-0.02-0.02-0.04-0.04-0.07-0.05
					c-0.03-0.01-0.06-0.03-0.1-0.04c-0.04-0.01-0.08-0.02-0.12-0.04c-0.04-0.01-0.08-0.03-0.12-0.05c-0.04-0.02-0.07-0.04-0.1-0.07
					c-0.03-0.03-0.05-0.07-0.07-0.12c-0.02-0.05-0.03-0.1-0.03-0.17c0-0.05,0.01-0.11,0.03-0.16c0.02-0.05,0.05-0.1,0.1-0.14
					c0.04-0.04,0.09-0.07,0.16-0.1s0.13-0.04,0.21-0.04c0.04,0,0.09,0,0.13,0.01c0.04,0.01,0.08,0.02,0.12,0.03
					c0.04,0.01,0.07,0.03,0.11,0.05c0.03,0.02,0.06,0.04,0.09,0.06L27.22,8.9z"/>
				<path class="full-logo-st4" d="M27.85,10.06h-0.34V8.61h0.34V10.06z"/>
				<path class="full-logo-st4" d="M28.9,9.47c0.01,0.03,0.02,0.06,0.04,0.08c0.01-0.03,0.02-0.06,0.04-0.08c0.01-0.03,0.03-0.05,0.04-0.08
					l0.37-0.73c0.01-0.01,0.01-0.02,0.02-0.03c0.01-0.01,0.01-0.01,0.02-0.02c0.01,0,0.02-0.01,0.03-0.01c0.01,0,0.02,0,0.04,0h0.26
					v1.45h-0.3V9.23c0-0.04,0-0.08,0.01-0.13l-0.38,0.74c-0.01,0.02-0.03,0.04-0.05,0.05c-0.02,0.01-0.04,0.02-0.07,0.02h-0.05
					c-0.03,0-0.05-0.01-0.07-0.02c-0.02-0.01-0.04-0.03-0.05-0.05l-0.39-0.74c0,0.02,0,0.05,0.01,0.07c0,0.02,0,0.04,0,0.06v0.83
					h-0.3V8.61h0.26c0.01,0,0.03,0,0.04,0c0.01,0,0.02,0,0.03,0.01c0.01,0,0.02,0.01,0.02,0.02c0.01,0.01,0.01,0.02,0.02,0.03
					l0.37,0.73C28.88,9.42,28.89,9.45,28.9,9.47z"/>
				<path class="full-logo-st4" d="M30.32,9.57v0.48h-0.34V8.61h0.51c0.1,0,0.19,0.01,0.26,0.04c0.07,0.02,0.13,0.06,0.18,0.1
					c0.05,0.04,0.08,0.09,0.1,0.15c0.02,0.06,0.03,0.12,0.03,0.19c0,0.07-0.01,0.14-0.03,0.2c-0.02,0.06-0.06,0.11-0.11,0.15
					s-0.11,0.08-0.18,0.1c-0.07,0.02-0.16,0.04-0.26,0.04H30.32z M30.32,9.32h0.17c0.09,0,0.15-0.02,0.19-0.06
					c0.04-0.04,0.06-0.1,0.06-0.17c0-0.03-0.01-0.06-0.01-0.09c-0.01-0.03-0.03-0.05-0.05-0.07c-0.02-0.02-0.05-0.03-0.08-0.05
					c-0.03-0.01-0.07-0.02-0.11-0.02h-0.17V9.32z"/>
				<path class="full-logo-st4" d="M31.59,9.79h0.54v0.27h-0.87V8.61h0.34V9.79z"/>
				<path class="full-logo-st4" d="M33.22,8.61v0.26h-0.59v0.34h0.45v0.25h-0.45V9.8h0.59v0.26h-0.93V8.61H33.22z"/>
			</g>
		</g>
	</g>
</g>
</svg>
