<?xml version="1.0" encoding="utf-8"?>
<!-- Generator: Adobe Illustrator 23.0.0, SVG Export Plug-In . SVG Version: 6.00 Build 0)  -->
<svg version="1.1" xmlns="http://www.w3.org/2000/svg" xmlns:xlink="http://www.w3.org/1999/xlink" x="0px" y="0px"
	 viewBox="0 0 40 12.67" style="enable-background:new 0 0 40 12.67;" xml:space="preserve">
<style type="text/css">
	.g1-st0{fill:#FFFFFF;}
	.g1-st1{fill:#0029D3;}
</style>
<g id="Layer_1">
	<g>
		<g id="XMLID_2_">
			<g>
				<path class="g1-st0" d="M16.72,6.59c0,1.38,0.84,2.57,2.05,3.07c0,0.5,0,0.89,0,1.14c-1.81-0.55-3.12-2.22-3.12-4.21
					c0-1.98,1.32-3.66,3.12-4.2v1.14C17.56,4.03,16.72,5.21,16.72,6.59z"/>
				<path class="g1-st0" d="M23.86,4.45h-1.29c-0.09-0.11-0.19-0.21-0.29-0.31c-0.17-0.16-0.35-0.29-0.55-0.41v-1.2
					c0.68,0.29,1.28,0.74,1.74,1.32C23.62,4.04,23.75,4.24,23.86,4.45z"/>
				<path class="g1-st0" d="M24.42,6.59c0,0.2-0.01,0.4-0.04,0.6c-0.21,1.57-1.24,2.87-2.65,3.46V9.45c0.8-0.48,1.39-1.3,1.57-2.26
					h-1.57h-0.04c0,0.13-0.04,0.26-0.12,0.35c-0.02,0.02-0.04,0.04-0.06,0.07c-0.11,0.1-0.26,0.17-0.42,0.17
					c-0.33,0-0.6-0.27-0.6-0.59V6.12h1.24h2.66C24.41,6.27,24.42,6.43,24.42,6.59z"/>
				<path class="g1-st1" d="M22.4,12.08h0.19c0.2,0,0.36,0.16,0.36,0.35c0,0.1-0.04,0.19-0.11,0.25c-0.06,0.06-0.15,0.1-0.25,0.1h-4.7
					c-0.2,0-0.36-0.16-0.36-0.35c0-0.09,0.04-0.18,0.11-0.25c0.06-0.06,0.15-0.1,0.25-0.1h0.19c0.27-0.1,0.67-0.36,0.67-0.97
					c0-0.04,0-0.23,0-0.31c0,0,0,0,0,0c0-0.24,0-0.64,0-1.14V9.58c0-1.62,0-4.23,0-6.06V2.39c0-0.35,0-0.62,0-0.78
					c0-0.11,0-0.18,0-0.18s-1.6,0.44-1.68-0.26c-0.06-0.46,1.13,0.19,1.42-1.29h3.22v2.65v1.2v2.38H20.5v1.07
					c0,0.33,0.27,0.59,0.6,0.59c0.16,0,0.31-0.07,0.42-0.17c0.02-0.02,0.04-0.04,0.06-0.07c0.07-0.1,0.12-0.22,0.12-0.35h0.04v2.26
					v1.19v0.46C21.73,11.72,22.14,11.97,22.4,12.08z"/>
			</g>
		</g>
	</g>
</g>
<g id="Layer_2">
</g>
</svg>
