<?xml version="1.0" encoding="utf-8"?>
<!-- Generator: Adobe Illustrator 23.0.0, SVG Export Plug-In . SVG Version: 6.00 Build 0)  -->
<svg version="1.1" xmlns="http://www.w3.org/2000/svg" xmlns:xlink="http://www.w3.org/1999/xlink" x="0px" y="0px"
	 viewBox="0 0 12.84 12.84" style="enable-background:new 0 0 12.84 12.84;" xml:space="preserve">
<style type="text/css">
	.st0{fill:#FFFFFF;}
	.st1{fill:#0029D3;}
	.st2{fill-rule:evenodd;clip-rule:evenodd;fill:none;}
	.st3{fill:#F07D00;}
	.st4{fill:#6E3075;}
</style>
<g id="Layer_1">
</g>
<g id="Layer_2">
	<g>
		<g>
			<g>
				<circle class="st4" cx="5.15" cy="2.86" r="0.25"/>
			</g>
			<g>
				<circle class="st4" cx="5.15" cy="2.86" r="0.25"/>
			</g>
			<g>
				<path class="st4" d="M2.57,5.91c-0.2,0.41-0.7,0.58-1.11,0.38c-0.41-0.2-0.58-0.7-0.38-1.11c0.2-0.41,0.7-0.58,1.11-0.38
					C2.6,5,2.77,5.5,2.57,5.91z"/>
				<path class="st4" d="M3.39,4.5c-0.26,0.24-0.66,0.22-0.9-0.04c-0.24-0.26-0.22-0.66,0.04-0.9c0.26-0.24,0.66-0.22,0.9,0.04
					C3.66,3.86,3.65,4.26,3.39,4.5z"/>
				<path class="st4" d="M4.43,3.55c-0.22,0.11-0.49,0.02-0.6-0.2c-0.11-0.22-0.02-0.49,0.2-0.6c0.22-0.11,0.49-0.02,0.6,0.2
					C4.74,3.17,4.65,3.44,4.43,3.55z"/>
				<circle class="st4" cx="5.15" cy="2.86" r="0.25"/>
			</g>
			<g>
				<circle class="st4" cx="1.34" cy="7.69" r="1.02"/>
				<circle class="st4" cx="1.81" cy="9.85" r="0.83"/>
				<circle class="st4" cx="2.92" cy="11.37" r="0.64"/>
				<circle class="st4" cx="4.16" cy="12.28" r="0.44"/>
				<circle class="st4" cx="5.06" cy="12.59" r="0.25"/>
			</g>
		</g>
		<g>
			<g>
				<circle class="st4" cx="9.98" cy="5.15" r="0.25"/>
			</g>
			<g>
				<circle class="st4" cx="5.15" cy="1.34" r="1.02"/>
				<path class="st4" d="M9.23,3.42c-0.26,0.24-0.66,0.22-0.9-0.04C8.1,3.13,8.11,2.73,8.37,2.49c0.26-0.24,0.66-0.22,0.9,0.04
					C9.51,2.78,9.49,3.18,9.23,3.42z"/>
				<path class="st4" d="M9.89,4.63c-0.22,0.11-0.49,0.02-0.6-0.2c-0.11-0.22-0.02-0.49,0.2-0.6c0.22-0.11,0.49-0.02,0.6,0.2
					C10.2,4.25,10.11,4.52,9.89,4.63z"/>
				<circle class="st4" cx="9.98" cy="5.15" r="0.25"/>
			</g>
			<g>
				<path class="st4" d="M8.04,2.19c-0.2,0.41-0.7,0.58-1.11,0.38c-0.41-0.2-0.58-0.7-0.38-1.11c0.2-0.41,0.7-0.58,1.11-0.38
					C8.07,1.28,8.24,1.78,8.04,2.19z"/>
				<circle class="st4" cx="9.98" cy="5.15" r="0.25"/>
			</g>
			<g>
				<circle class="st4" cx="2.99" cy="1.81" r="0.83"/>
				<circle class="st4" cx="1.47" cy="2.92" r="0.64"/>
				<circle class="st4" cx="0.56" cy="4.16" r="0.44"/>
				<circle class="st4" cx="0.25" cy="5.06" r="0.25"/>
			</g>
		</g>
		<g>
			<g>
				<circle class="st4" cx="7.69" cy="9.98" r="0.25"/>
			</g>
			<g>
				<circle class="st4" cx="7.69" cy="9.98" r="0.25"/>
			</g>
			<g>
				<path class="st4" d="M11.76,7.66c-0.2,0.41-0.7,0.58-1.11,0.38c-0.41-0.2-0.58-0.7-0.38-1.11c0.2-0.41,0.7-0.58,1.11-0.38
					C11.79,6.76,11.96,7.25,11.76,7.66z"/>
				<path class="st4" d="M10.31,9.27c-0.26,0.24-0.66,0.22-0.9-0.04c-0.24-0.26-0.22-0.66,0.04-0.9c0.26-0.24,0.66-0.22,0.9,0.04
					C10.59,8.63,10.57,9.03,10.31,9.27z"/>
				<path class="st4" d="M8.81,10.09c-0.22,0.11-0.49,0.02-0.6-0.2C8.1,9.67,8.19,9.4,8.41,9.29c0.22-0.11,0.49-0.02,0.6,0.2
					C9.12,9.71,9.03,9.98,8.81,10.09z"/>
				<circle class="st4" cx="7.69" cy="9.98" r="0.25"/>
			</g>
			<g>
				<circle class="st4" cx="11.5" cy="5.15" r="1.02"/>
				<circle class="st4" cx="11.03" cy="2.99" r="0.83"/>
				<circle class="st4" cx="9.92" cy="1.47" r="0.64"/>
				<circle class="st4" cx="8.68" cy="0.56" r="0.44"/>
				<circle class="st4" cx="7.78" cy="0.25" r="0.25"/>
			</g>
		</g>
		<g>
			<g>
				<circle class="st4" cx="2.86" cy="7.69" r="0.25"/>
			</g>
			<g>
				<circle class="st4" cx="2.86" cy="7.69" r="0.25"/>
			</g>
			<g>
				<path class="st4" d="M6.29,11.38c-0.2,0.41-0.7,0.58-1.11,0.38c-0.41-0.2-0.58-0.7-0.38-1.11c0.2-0.41,0.7-0.58,1.11-0.38
					C6.32,10.47,6.49,10.97,6.29,11.38z"/>
				<path class="st4" d="M4.47,10.35c-0.26,0.24-0.66,0.22-0.9-0.04c-0.24-0.26-0.22-0.66,0.04-0.9c0.26-0.24,0.66-0.22,0.9,0.04
					C4.74,9.71,4.73,10.11,4.47,10.35z"/>
				<path class="st4" d="M3.35,9.01c-0.22,0.11-0.49,0.02-0.6-0.2c-0.11-0.22-0.02-0.49,0.2-0.6c0.22-0.11,0.49-0.02,0.6,0.2
					C3.66,8.63,3.57,8.9,3.35,9.01z"/>
				<circle class="st4" cx="2.86" cy="7.69" r="0.25"/>
			</g>
			<g>
				<circle class="st4" cx="7.69" cy="11.5" r="1.02"/>
				<circle class="st4" cx="9.85" cy="11.03" r="0.83"/>
				<circle class="st4" cx="11.37" cy="9.92" r="0.64"/>
				<circle class="st4" cx="12.28" cy="8.68" r="0.44"/>
				<circle class="st4" cx="12.59" cy="7.78" r="0.25"/>
			</g>
		</g>
	</g>
</g>
</svg>
